<?xml version="1.0" encoding="UTF-8" standalone="no"?>
<svg xmlns="http://www.w3.org/2000/svg"
     xmlns:xlink="http://www.w3.org/1999/xlink"
     width="300pt" height="400pt" viewBox="0 0 300 400">
<title>gl2ps_renderer figure</title>
<desc>
Creator: GL2PS 1.4.0, (C) 1999-2017 C. Geuzaine
For: Octave
CreationDate: Thu Nov  1 20:07:12 2018
</desc>
<defs>
</defs>
<polygon fill="#ffffff" points="0,0 300,0 300,400 0,400"/>
<g>
<polygon fill="#ffffff" points="0,400 300,400 300,0 0,0" shape-rendering="crispEdges"/>
<clipPath id="cp00300400">
  <polygon points="0,400 300,400 300,0 0,0"/>
</clipPath>
<g clip-path="url(#cp00300400)">
<polygon fill="#ffffff" shape-rendering="crispEdges" points="63.9883,356 63.9883,30 271.5,356"/>
<polygon fill="#ffffff" shape-rendering="crispEdges" points="63.9883,30 271.5,30 271.5,356"/>
<polyline fill="none" stroke="#262626" stroke-width="0.5" stroke-linecap="butt" stroke-linejoin="miter" points="63.9883,30 67.2406,30"/>
<polyline fill="none" stroke="#262626" stroke-width="0.5" stroke-linecap="butt" stroke-linejoin="miter" points="271.5,30 268.248,30"/>
<polyline fill="none" stroke="#262626" stroke-width="0.5" stroke-linecap="butt" stroke-linejoin="miter" points="63.9883,40.5161 67.2406,40.5161"/>
<polyline fill="none" stroke="#262626" stroke-width="0.5" stroke-linecap="butt" stroke-linejoin="miter" points="271.5,40.5161 268.248,40.5161"/>
<polyline fill="none" stroke="#262626" stroke-width="0.5" stroke-linecap="butt" stroke-linejoin="miter" points="63.9883,51.0323 67.2406,51.0323"/>
<polyline fill="none" stroke="#262626" stroke-width="0.5" stroke-linecap="butt" stroke-linejoin="miter" points="271.5,51.0323 268.248,51.0323"/>
<polyline fill="none" stroke="#262626" stroke-width="0.5" stroke-linecap="butt" stroke-linejoin="miter" points="63.9883,61.5484 67.2406,61.5484"/>
<polyline fill="none" stroke="#262626" stroke-width="0.5" stroke-linecap="butt" stroke-linejoin="miter" points="271.5,61.5484 268.248,61.5484"/>
<polyline fill="none" stroke="#262626" stroke-width="0.5" stroke-linecap="butt" stroke-linejoin="miter" points="63.9883,72.0645 67.2406,72.0645"/>
<polyline fill="none" stroke="#262626" stroke-width="0.5" stroke-linecap="butt" stroke-linejoin="miter" points="271.5,72.0645 268.248,72.0645"/>
<polyline fill="none" stroke="#262626" stroke-width="0.5" stroke-linecap="butt" stroke-linejoin="miter" points="63.9883,82.5806 67.2406,82.5806"/>
<polyline fill="none" stroke="#262626" stroke-width="0.5" stroke-linecap="butt" stroke-linejoin="miter" points="271.5,82.5806 268.248,82.5806"/>
<polyline fill="none" stroke="#262626" stroke-width="0.5" stroke-linecap="butt" stroke-linejoin="miter" points="63.9883,93.0968 67.2406,93.0968"/>
<polyline fill="none" stroke="#262626" stroke-width="0.5" stroke-linecap="butt" stroke-linejoin="miter" points="271.5,93.0968 268.248,93.0968"/>
<polyline fill="none" stroke="#262626" stroke-width="0.5" stroke-linecap="butt" stroke-linejoin="miter" points="63.9883,103.613 67.2406,103.613"/>
<polyline fill="none" stroke="#262626" stroke-width="0.5" stroke-linecap="butt" stroke-linejoin="miter" points="271.5,103.613 268.248,103.613"/>
<polyline fill="none" stroke="#262626" stroke-width="0.5" stroke-linecap="butt" stroke-linejoin="miter" points="63.9883,114.129 67.2406,114.129"/>
<polyline fill="none" stroke="#262626" stroke-width="0.5" stroke-linecap="butt" stroke-linejoin="miter" points="271.5,114.129 268.248,114.129"/>
<polyline fill="none" stroke="#262626" stroke-width="0.5" stroke-linecap="butt" stroke-linejoin="miter" points="63.9883,124.645 67.2406,124.645"/>
<polyline fill="none" stroke="#262626" stroke-width="0.5" stroke-linecap="butt" stroke-linejoin="miter" points="271.5,124.645 268.248,124.645"/>
<polyline fill="none" stroke="#262626" stroke-width="0.5" stroke-linecap="butt" stroke-linejoin="miter" points="63.9883,135.161 67.2406,135.161"/>
<polyline fill="none" stroke="#262626" stroke-width="0.5" stroke-linecap="butt" stroke-linejoin="miter" points="271.5,135.161 268.248,135.161"/>
<polyline fill="none" stroke="#262626" stroke-width="0.5" stroke-linecap="butt" stroke-linejoin="miter" points="63.9883,145.677 67.2406,145.677"/>
<polyline fill="none" stroke="#262626" stroke-width="0.5" stroke-linecap="butt" stroke-linejoin="miter" points="271.5,145.677 268.248,145.677"/>
<polyline fill="none" stroke="#262626" stroke-width="0.5" stroke-linecap="butt" stroke-linejoin="miter" points="63.9883,156.194 67.2406,156.194"/>
<polyline fill="none" stroke="#262626" stroke-width="0.5" stroke-linecap="butt" stroke-linejoin="miter" points="271.5,156.194 268.248,156.194"/>
<polyline fill="none" stroke="#262626" stroke-width="0.5" stroke-linecap="butt" stroke-linejoin="miter" points="63.9883,166.71 67.2406,166.71"/>
<polyline fill="none" stroke="#262626" stroke-width="0.5" stroke-linecap="butt" stroke-linejoin="miter" points="271.5,166.71 268.248,166.71"/>
<polyline fill="none" stroke="#262626" stroke-width="0.5" stroke-linecap="butt" stroke-linejoin="miter" points="63.9883,177.226 67.2406,177.226"/>
<polyline fill="none" stroke="#262626" stroke-width="0.5" stroke-linecap="butt" stroke-linejoin="miter" points="271.5,177.226 268.248,177.226"/>
<polyline fill="none" stroke="#262626" stroke-width="0.5" stroke-linecap="butt" stroke-linejoin="miter" points="63.9883,187.742 67.2406,187.742"/>
<polyline fill="none" stroke="#262626" stroke-width="0.5" stroke-linecap="butt" stroke-linejoin="miter" points="271.5,187.742 268.248,187.742"/>
<polyline fill="none" stroke="#262626" stroke-width="0.5" stroke-linecap="butt" stroke-linejoin="miter" points="63.9883,198.258 67.2406,198.258"/>
<polyline fill="none" stroke="#262626" stroke-width="0.5" stroke-linecap="butt" stroke-linejoin="miter" points="271.5,198.258 268.248,198.258"/>
<polyline fill="none" stroke="#262626" stroke-width="0.5" stroke-linecap="butt" stroke-linejoin="miter" points="63.9883,208.774 67.2406,208.774"/>
<polyline fill="none" stroke="#262626" stroke-width="0.5" stroke-linecap="butt" stroke-linejoin="miter" points="271.5,208.774 268.248,208.774"/>
<polyline fill="none" stroke="#262626" stroke-width="0.5" stroke-linecap="butt" stroke-linejoin="miter" points="63.9883,219.29 67.2406,219.29"/>
<polyline fill="none" stroke="#262626" stroke-width="0.5" stroke-linecap="butt" stroke-linejoin="miter" points="271.5,219.29 268.248,219.29"/>
<polyline fill="none" stroke="#262626" stroke-width="0.5" stroke-linecap="butt" stroke-linejoin="miter" points="63.9883,229.806 67.2406,229.806"/>
<polyline fill="none" stroke="#262626" stroke-width="0.5" stroke-linecap="butt" stroke-linejoin="miter" points="271.5,229.806 268.248,229.806"/>
<polyline fill="none" stroke="#262626" stroke-width="0.5" stroke-linecap="butt" stroke-linejoin="miter" points="63.9883,240.323 67.2406,240.323"/>
<polyline fill="none" stroke="#262626" stroke-width="0.5" stroke-linecap="butt" stroke-linejoin="miter" points="271.5,240.323 268.248,240.323"/>
<polyline fill="none" stroke="#262626" stroke-width="0.5" stroke-linecap="butt" stroke-linejoin="miter" points="63.9883,250.839 67.2406,250.839"/>
<polyline fill="none" stroke="#262626" stroke-width="0.5" stroke-linecap="butt" stroke-linejoin="miter" points="271.5,250.839 268.248,250.839"/>
<polyline fill="none" stroke="#262626" stroke-width="0.5" stroke-linecap="butt" stroke-linejoin="miter" points="63.9883,261.355 67.2406,261.355"/>
<polyline fill="none" stroke="#262626" stroke-width="0.5" stroke-linecap="butt" stroke-linejoin="miter" points="271.5,261.355 268.248,261.355"/>
<polyline fill="none" stroke="#262626" stroke-width="0.5" stroke-linecap="butt" stroke-linejoin="miter" points="63.9883,271.871 67.2406,271.871"/>
<polyline fill="none" stroke="#262626" stroke-width="0.5" stroke-linecap="butt" stroke-linejoin="miter" points="271.5,271.871 268.248,271.871"/>
<polyline fill="none" stroke="#262626" stroke-width="0.5" stroke-linecap="butt" stroke-linejoin="miter" points="63.9883,282.387 67.2406,282.387"/>
<polyline fill="none" stroke="#262626" stroke-width="0.5" stroke-linecap="butt" stroke-linejoin="miter" points="271.5,282.387 268.248,282.387"/>
<polyline fill="none" stroke="#262626" stroke-width="0.5" stroke-linecap="butt" stroke-linejoin="miter" points="63.9883,292.903 67.2406,292.903"/>
<polyline fill="none" stroke="#262626" stroke-width="0.5" stroke-linecap="butt" stroke-linejoin="miter" points="271.5,292.903 268.248,292.903"/>
<polyline fill="none" stroke="#262626" stroke-width="0.5" stroke-linecap="butt" stroke-linejoin="miter" points="63.9883,303.419 67.2406,303.419"/>
<polyline fill="none" stroke="#262626" stroke-width="0.5" stroke-linecap="butt" stroke-linejoin="miter" points="271.5,303.419 268.248,303.419"/>
<polyline fill="none" stroke="#262626" stroke-width="0.5" stroke-linecap="butt" stroke-linejoin="miter" points="63.9883,313.935 67.2406,313.935"/>
<polyline fill="none" stroke="#262626" stroke-width="0.5" stroke-linecap="butt" stroke-linejoin="miter" points="271.5,313.935 268.248,313.935"/>
<polyline fill="none" stroke="#262626" stroke-width="0.5" stroke-linecap="butt" stroke-linejoin="miter" points="63.9883,324.452 67.2406,324.452"/>
<polyline fill="none" stroke="#262626" stroke-width="0.5" stroke-linecap="butt" stroke-linejoin="miter" points="271.5,324.452 268.248,324.452"/>
<polyline fill="none" stroke="#262626" stroke-width="0.5" stroke-linecap="butt" stroke-linejoin="miter" points="63.9883,334.968 67.2406,334.968"/>
<polyline fill="none" stroke="#262626" stroke-width="0.5" stroke-linecap="butt" stroke-linejoin="miter" points="271.5,334.968 268.248,334.968"/>
<polyline fill="none" stroke="#262626" stroke-width="0.5" stroke-linecap="butt" stroke-linejoin="miter" points="63.9883,345.484 67.2406,345.484"/>
<polyline fill="none" stroke="#262626" stroke-width="0.5" stroke-linecap="butt" stroke-linejoin="miter" points="271.5,345.484 268.248,345.484"/>
<polyline fill="none" stroke="#262626" stroke-width="0.5" stroke-linecap="butt" stroke-linejoin="miter" points="63.9883,356 67.2406,356"/>
<polyline fill="none" stroke="#262626" stroke-width="0.5" stroke-linecap="butt" stroke-linejoin="miter" points="271.5,356 268.248,356"/>
<text xml:space="preserve" transform="translate(25,35.5) rotate(-0,34,-5.5)" font-family="FreeSans" font-weight="normal" font-style="normal" font-size="10"><tspan y="-1" fill="rgb(38,38,38)" x="0 7 12 15 20 26 31 ">Hotspot</tspan></text>
<text xml:space="preserve" transform="translate(21,46.0161) rotate(-0,38,-5.5)" font-family="FreeSans" font-weight="normal" font-style="normal" font-size="10"><tspan y="-1" fill="rgb(38,38,38)" x="0 7 10 18 23 28 33 ">K-Means</tspan></text>
<text xml:space="preserve" transform="translate(23,56.5323) rotate(-0,36,-5.5)" font-family="FreeSans" font-weight="normal" font-style="normal" font-size="10"><tspan y="-1" fill="rgb(38,38,38)" x="0 6 11 16 21 29 ">LavaMD</tspan></text>
<text xml:space="preserve" transform="translate(45,67.0484) rotate(-0,14,-5.5)" font-family="FreeSans" font-weight="normal" font-style="normal" font-size="10"><tspan y="-1" fill="rgb(38,38,38)" x="0 7 ">NN</tspan></text>
<text xml:space="preserve" transform="translate(31,77.5645) rotate(-0,28,-5.5)" font-family="FreeSans" font-weight="normal" font-style="normal" font-size="10"><tspan y="-1" fill="rgb(38,38,38)" x="0 7 16 19 25 ">NW(1)</tspan></text>
<text xml:space="preserve" transform="translate(31,88.0806) rotate(-0,28,-5.5)" font-family="FreeSans" font-weight="normal" font-style="normal" font-size="10"><tspan y="-1" fill="rgb(38,38,38)" x="0 7 16 19 25 ">NW(2)</tspan></text>
<text xml:space="preserve" transform="translate(31,98.5968) rotate(-0,28,-5.5)" font-family="FreeSans" font-weight="normal" font-style="normal" font-size="10"><tspan y="-1" fill="rgb(38,38,38)" x="0 7 14 21 ">SRAD</tspan></text>
<text xml:space="preserve" transform="translate(5,109.113) rotate(-0,54,-5.5)" font-family="FreeSans" font-weight="normal" font-style="normal" font-size="10"><tspan y="-1" fill="rgb(38,38,38)" x="0 7 12 17 22 28 31 36 42 45 51 ">Backprop(1)</tspan></text>
<text xml:space="preserve" transform="translate(5,119.629) rotate(-0,54,-5.5)" font-family="FreeSans" font-weight="normal" font-style="normal" font-size="10"><tspan y="-1" fill="rgb(38,38,38)" x="0 7 12 17 22 28 31 36 42 45 51 ">Backprop(2)</tspan></text>
<text xml:space="preserve" transform="translate(27,130.145) rotate(-0,32,-5.5)" font-family="FreeSans" font-weight="normal" font-style="normal" font-size="10"><tspan y="-1" fill="rgb(38,38,38)" x="0 6 13 20 23 29 ">LUD(1)</tspan></text>
<text xml:space="preserve" transform="translate(27,140.661) rotate(-0,32,-5.5)" font-family="FreeSans" font-weight="normal" font-style="normal" font-size="10"><tspan y="-1" fill="rgb(38,38,38)" x="0 6 13 20 23 29 ">LUD(2)</tspan></text>
<text xml:space="preserve" transform="translate(27,151.177) rotate(-0,32,-5.5)" font-family="FreeSans" font-weight="normal" font-style="normal" font-size="10"><tspan y="-1" fill="rgb(38,38,38)" x="0 6 13 20 23 29 ">LUD(3)</tspan></text>
<text xml:space="preserve" transform="translate(3,161.694) rotate(-0,56,-5.5)" font-family="FreeSans" font-weight="normal" font-style="normal" font-size="10"><tspan y="-1" fill="rgb(38,38,38)" x="0 6 11 16 21 26 31 36 39 44 47 53 ">Leukocyte(1)</tspan></text>
<text xml:space="preserve" transform="translate(3,172.21) rotate(-0,56,-5.5)" font-family="FreeSans" font-weight="normal" font-style="normal" font-size="10"><tspan y="-1" fill="rgb(38,38,38)" x="0 6 11 16 21 26 31 36 39 44 47 53 ">Leukocyte(2)</tspan></text>
<text xml:space="preserve" transform="translate(2,182.726) rotate(-0,57,-5.5)" font-family="FreeSans" font-weight="normal" font-style="normal" font-size="10"><tspan y="-1" fill="rgb(38,38,38)" x="0 7 12 18 21 23 29 34 39 42 45 48 54 ">Hybridsort(1)</tspan></text>
<text xml:space="preserve" transform="translate(2,193.242) rotate(-0,57,-5.5)" font-family="FreeSans" font-weight="normal" font-style="normal" font-size="10"><tspan y="-1" fill="rgb(38,38,38)" x="0 7 12 18 21 23 29 34 39 42 45 48 54 ">Hybridsort(2)</tspan></text>
<text xml:space="preserve" transform="translate(2,203.758) rotate(-0,57,-5.5)" font-family="FreeSans" font-weight="normal" font-style="normal" font-size="10"><tspan y="-1" fill="rgb(38,38,38)" x="0 7 12 18 21 23 29 34 39 42 45 48 54 ">Hybridsort(3)</tspan></text>
<text xml:space="preserve" transform="translate(12,214.274) rotate(-0,47,-5.5)" font-family="FreeSans" font-weight="normal" font-style="normal" font-size="10"><tspan y="-1" fill="rgb(38,38,38)" x="0 7 12 15 20 26 31 34 40 ">Hotspot3D</tspan></text>
<text xml:space="preserve" transform="translate(39,224.79) rotate(-0,20,-5.5)" font-family="FreeSans" font-weight="normal" font-style="normal" font-size="10"><tspan y="-1" fill="rgb(38,38,38)" x="0 7 13 ">CFD</tspan></text>
<text xml:space="preserve" transform="translate(26,235.306) rotate(-0,33,-5.5)" font-family="FreeSans" font-weight="normal" font-style="normal" font-size="10"><tspan y="-1" fill="rgb(38,38,38)" x="0 7 14 20 23 28 ">BPTree</tspan></text>
<text xml:space="preserve" transform="translate(3.44528e-10,245.823) rotate(-0,59,-5.5)" font-family="FreeSans" font-weight="normal" font-style="normal" font-size="10"><tspan y="-1" fill="rgb(38,38,38)" x="0 7 10 13 18 23 31 36 38 43 48 51 56 ">Streamcluster</tspan></text>
<text xml:space="preserve" transform="translate(41,256.339) rotate(-0,18,-5.5)" font-family="FreeSans" font-weight="normal" font-style="normal" font-size="10"><tspan y="-1" fill="rgb(38,38,38)" x="0 6 12 ">FFT</tspan></text>
<text xml:space="preserve" transform="translate(44,266.855) rotate(-0,15,-5.5)" font-family="FreeSans" font-weight="normal" font-style="normal" font-size="10"><tspan y="-1" fill="rgb(38,38,38)" x="0 8 ">MD</tspan></text>
<text xml:space="preserve" transform="translate(16,277.371) rotate(-0,43,-5.5)" font-family="FreeSans" font-weight="normal" font-style="normal" font-size="10"><tspan y="-1" fill="rgb(38,38,38)" x="0 8 15 21 28 33 38 ">MD5Hash</tspan></text>
<text xml:space="preserve" transform="translate(16,287.887) rotate(-0,43,-5.5)" font-family="FreeSans" font-weight="normal" font-style="normal" font-size="10"><tspan y="-1" fill="rgb(38,38,38)" x="0 7 12 18 23 28 31 33 38 ">Reduction</tspan></text>
<text xml:space="preserve" transform="translate(32,298.403) rotate(-0,27,-5.5)" font-family="FreeSans" font-weight="normal" font-style="normal" font-size="10"><tspan y="-1" fill="rgb(38,38,38)" x="0 7 13 21 ">SpMV</tspan></text>
<text xml:space="preserve" transform="translate(17,308.919) rotate(-0,42,-5.5)" font-family="FreeSans" font-weight="normal" font-style="normal" font-size="10"><tspan y="-1" fill="rgb(38,38,38)" x="0 7 10 15 20 25 27 29 35 ">Stencil2D</tspan></text>
<text xml:space="preserve" transform="translate(37,319.435) rotate(-0,22,-5.5)" font-family="FreeSans" font-weight="normal" font-style="normal" font-size="10"><tspan y="-1" fill="rgb(38,38,38)" x="0 7 12 17 ">Scan</tspan></text>
<text xml:space="preserve" transform="translate(12,329.952) rotate(-0,47,-5.5)" font-family="FreeSans" font-weight="normal" font-style="normal" font-size="10"><tspan y="-1" fill="rgb(38,38,38)" x="0 7 14 21 28 35 38 44 ">NDRSD(1)</tspan></text>
<text xml:space="preserve" transform="translate(12,340.468) rotate(-0,47,-5.5)" font-family="FreeSans" font-weight="normal" font-style="normal" font-size="10"><tspan y="-1" fill="rgb(38,38,38)" x="0 7 14 21 28 35 38 44 ">NDRSD(2)</tspan></text>
<text xml:space="preserve" transform="translate(12,350.984) rotate(-0,47,-5.5)" font-family="FreeSans" font-weight="normal" font-style="normal" font-size="10"><tspan y="-1" fill="rgb(38,38,38)" x="0 7 14 21 28 35 38 44 ">NDRSD(3)</tspan></text>
<text xml:space="preserve" transform="translate(12,361.5) rotate(-0,47,-5.5)" font-family="FreeSans" font-weight="normal" font-style="normal" font-size="10"><tspan y="-1" fill="rgb(38,38,38)" x="0 7 14 21 28 35 38 44 ">NDRSD(4)</tspan></text>
<polyline fill="none" stroke="#262626" stroke-width="0.5" stroke-linecap="butt" stroke-linejoin="miter" points="63.9883,356 63.9883,352.74"/>
<polyline fill="none" stroke="#262626" stroke-width="0.5" stroke-linecap="butt" stroke-linejoin="miter" points="63.9883,30 63.9883,33.26"/>
<polyline fill="none" stroke="#262626" stroke-width="0.5" stroke-linecap="butt" stroke-linejoin="miter" points="105.491,356 105.491,352.74"/>
<polyline fill="none" stroke="#262626" stroke-width="0.5" stroke-linecap="butt" stroke-linejoin="miter" points="105.491,30 105.491,33.26"/>
<polyline fill="none" stroke="#262626" stroke-width="0.5" stroke-linecap="butt" stroke-linejoin="miter" points="146.993,356 146.993,352.74"/>
<polyline fill="none" stroke="#262626" stroke-width="0.5" stroke-linecap="butt" stroke-linejoin="miter" points="146.993,30 146.993,33.26"/>
<polyline fill="none" stroke="#262626" stroke-width="0.5" stroke-linecap="butt" stroke-linejoin="miter" points="188.495,356 188.495,352.74"/>
<polyline fill="none" stroke="#262626" stroke-width="0.5" stroke-linecap="butt" stroke-linejoin="miter" points="188.495,30 188.495,33.26"/>
<polyline fill="none" stroke="#262626" stroke-width="0.5" stroke-linecap="butt" stroke-linejoin="miter" points="229.998,356 229.998,352.74"/>
<polyline fill="none" stroke="#262626" stroke-width="0.5" stroke-linecap="butt" stroke-linejoin="miter" points="229.998,30 229.998,33.26"/>
<polyline fill="none" stroke="#262626" stroke-width="0.5" stroke-linecap="butt" stroke-linejoin="miter" points="271.5,356 271.5,352.74"/>
<polyline fill="none" stroke="#262626" stroke-width="0.5" stroke-linecap="butt" stroke-linejoin="miter" points="271.5,30 271.5,33.26"/>
<text xml:space="preserve" transform="translate(60.9883,372) rotate(-0,3,-11)" font-family="FreeSans" font-weight="normal" font-style="normal" font-size="10"><tspan y="-1" fill="rgb(38,38,38)" x="0 ">0</tspan></text>
<text xml:space="preserve" transform="translate(97.9906,372) rotate(-0,7.5,-11)" font-family="FreeSans" font-weight="normal" font-style="normal" font-size="10"><tspan y="-1" fill="rgb(38,38,38)" x="0 6 9 ">0.2</tspan></text>
<text xml:space="preserve" transform="translate(139.493,372) rotate(-0,7.5,-11)" font-family="FreeSans" font-weight="normal" font-style="normal" font-size="10"><tspan y="-1" fill="rgb(38,38,38)" x="0 6 9 ">0.4</tspan></text>
<text xml:space="preserve" transform="translate(180.995,372) rotate(-0,7.5,-11)" font-family="FreeSans" font-weight="normal" font-style="normal" font-size="10"><tspan y="-1" fill="rgb(38,38,38)" x="0 6 9 ">0.6</tspan></text>
<text xml:space="preserve" transform="translate(222.498,372) rotate(-0,7.5,-11)" font-family="FreeSans" font-weight="normal" font-style="normal" font-size="10"><tspan y="-1" fill="rgb(38,38,38)" x="0 6 9 ">0.8</tspan></text>
<text xml:space="preserve" transform="translate(268.5,372) rotate(-0,3,-11)" font-family="FreeSans" font-weight="normal" font-style="normal" font-size="10"><tspan y="-1" fill="rgb(38,38,38)" x="0 ">1</tspan></text>
<polyline fill="none" stroke="#262626" stroke-width="0.5" stroke-linecap="square" stroke-linejoin="miter" stroke-dasharray="16,0" points="63.9883,356 63.9883,30"/>
<polyline fill="none" stroke="#262626" stroke-width="0.5" stroke-linecap="square" stroke-linejoin="miter" stroke-dasharray="16,0" points="271.5,356 271.5,30"/>
<polyline fill="none" stroke="#262626" stroke-width="0.5" stroke-linecap="square" stroke-linejoin="miter" stroke-dasharray="16,0" points="63.9883,356 271.5,356"/>
<polyline fill="none" stroke="#262626" stroke-width="0.5" stroke-linecap="square" stroke-linejoin="miter" stroke-dasharray="16,0" points="63.9883,30 271.5,30"/>
<text xml:space="preserve" transform="translate(127.244,385) rotate(-0,40.5,-13)" font-family="FreeSans" font-weight="normal" font-style="normal" font-size="11"><tspan y="-2" fill="rgb(38,38,38)" x="0 8 14 16 22 25 27 32 38 41 47 49 54 57 63 69 75 ">Relative distance</tspan></text>
<polyline fill="none" stroke="#0071bc" stroke-width="0.5" stroke-linecap="butt" stroke-linejoin="round" points="95.115,30 70.2136,40.5161 78.5141,51.0323 113.791,61.5484 101.34,72.0645 103.415,82.5806 124.167,93.0968 72.2887,103.613 107.566,114.129 161.519,124.645 93.0399,135.161 66.0634,145.677 74.3639,156.194 70.2136,166.71 95.115,177.226 84.7394,187.742 117.941,198.258 68.1385,208.774 120.016,219.29 105.491,229.806 70.2136,240.323 113.791,250.839 93.0399,261.355 126.242,271.871 86.8146,282.387 74.3639,292.903 88.8897,303.419 74.3639,313.935 142.843,324.452 136.617,334.968 157.369,345.484 113.791,356"/>
<polyline fill="none" stroke="#0071bc" stroke-width="0.5" stroke-linecap="round" stroke-linejoin="round" points="98.115,30 97.5421,31.7634 96.0421,32.8531 94.188,32.8531 92.688,31.7634 92.115,30 92.688,28.2366 94.188,27.1469 96.0421,27.1469 97.5421,28.2366 98.115,30"/>
<polyline fill="none" stroke="#0071bc" stroke-width="0.5" stroke-linecap="round" stroke-linejoin="round" points="73.2136,40.5161 72.6407,42.2795 71.1407,43.3693 69.2866,43.3693 67.7866,42.2795 67.2136,40.5161 67.7866,38.7528 69.2866,37.663 71.1407,37.663 72.6407,38.7528 73.2136,40.5161"/>
<polyline fill="none" stroke="#0071bc" stroke-width="0.5" stroke-linecap="round" stroke-linejoin="round" points="81.5141,51.0323 80.9411,52.7956 79.4411,53.8854 77.587,53.8854 76.087,52.7956 75.5141,51.0323 76.087,49.2689 77.587,48.1791 79.4411,48.1791 80.9411,49.2689 81.5141,51.0323"/>
<polyline fill="none" stroke="#0071bc" stroke-width="0.5" stroke-linecap="round" stroke-linejoin="round" points="116.791,61.5484 116.218,63.3117 114.718,64.4016 112.864,64.4016 111.364,63.3117 110.791,61.5484 111.364,59.785 112.864,58.6952 114.718,58.6952 116.218,59.785 116.791,61.5484"/>
<polyline fill="none" stroke="#0071bc" stroke-width="0.5" stroke-linecap="round" stroke-linejoin="round" points="104.34,72.0645 103.767,73.8279 102.267,74.9177 100.413,74.9177 98.9133,73.8279 98.3404,72.0645 98.9133,70.3011 100.413,69.2114 102.267,69.2114 103.767,70.3011 104.34,72.0645"/>
<polyline fill="none" stroke="#0071bc" stroke-width="0.5" stroke-linecap="round" stroke-linejoin="round" points="106.415,82.5806 105.843,84.344 104.343,85.4338 102.488,85.4338 100.988,84.344 100.415,82.5806 100.988,80.8173 102.488,79.7275 104.343,79.7275 105.843,80.8173 106.415,82.5806"/>
<polyline fill="none" stroke="#0071bc" stroke-width="0.5" stroke-linecap="round" stroke-linejoin="round" points="127.167,93.0968 126.594,94.8601 125.094,95.95 123.24,95.95 121.74,94.8601 121.167,93.0968 121.74,91.3334 123.24,90.2436 125.094,90.2436 126.594,91.3334 127.167,93.0968"/>
<polyline fill="none" stroke="#0071bc" stroke-width="0.5" stroke-linecap="round" stroke-linejoin="round" points="75.2887,103.613 74.7158,105.376 73.2158,106.466 71.3617,106.466 69.8617,105.376 69.2887,103.613 69.8617,101.85 71.3617,100.76 73.2158,100.76 74.7158,101.85 75.2887,103.613"/>
<polyline fill="none" stroke="#0071bc" stroke-width="0.5" stroke-linecap="round" stroke-linejoin="round" points="110.566,114.129 109.993,115.892 108.493,116.982 106.639,116.982 105.139,115.892 104.566,114.129 105.139,112.366 106.639,111.276 108.493,111.276 109.993,112.366 110.566,114.129"/>
<polyline fill="none" stroke="#0071bc" stroke-width="0.5" stroke-linecap="round" stroke-linejoin="round" points="164.519,124.645 163.946,126.409 162.446,127.498 160.592,127.498 159.092,126.409 158.519,124.645 159.092,122.882 160.592,121.792 162.446,121.792 163.946,122.882 164.519,124.645"/>
<polyline fill="none" stroke="#0071bc" stroke-width="0.5" stroke-linecap="round" stroke-linejoin="round" points="96.0399,135.161 95.467,136.925 93.967,138.014 92.1129,138.014 90.6129,136.925 90.0399,135.161 90.6129,133.398 92.1129,132.308 93.967,132.308 95.467,133.398 96.0399,135.161"/>
<polyline fill="none" stroke="#0071bc" stroke-width="0.5" stroke-linecap="round" stroke-linejoin="round" points="69.0634,145.677 68.4904,147.441 66.9904,148.531 65.1363,148.531 63.6363,147.441 63.0634,145.677 63.6363,143.914 65.1363,142.824 66.9904,142.824 68.4904,143.914 69.0634,145.677"/>
<polyline fill="none" stroke="#0071bc" stroke-width="0.5" stroke-linecap="round" stroke-linejoin="round" points="77.3639,156.194 76.7909,157.957 75.2909,159.047 73.4368,159.047 71.9368,157.957 71.3639,156.194 71.9368,154.43 73.4368,153.34 75.2909,153.34 76.7909,154.43 77.3639,156.194"/>
<polyline fill="none" stroke="#0071bc" stroke-width="0.5" stroke-linecap="round" stroke-linejoin="round" points="73.2136,166.71 72.6407,168.473 71.1407,169.563 69.2866,169.563 67.7866,168.473 67.2136,166.71 67.7866,164.946 69.2866,163.856 71.1407,163.856 72.6407,164.946 73.2136,166.71"/>
<polyline fill="none" stroke="#0071bc" stroke-width="0.5" stroke-linecap="round" stroke-linejoin="round" points="98.115,177.226 97.5421,178.989 96.0421,180.079 94.188,180.079 92.688,178.989 92.115,177.226 92.688,175.462 94.188,174.373 96.0421,174.373 97.5421,175.462 98.115,177.226"/>
<polyline fill="none" stroke="#0071bc" stroke-width="0.5" stroke-linecap="round" stroke-linejoin="round" points="87.7394,187.742 87.1665,189.505 85.6665,190.595 83.8124,190.595 82.3124,189.505 81.7394,187.742 82.3124,185.979 83.8124,184.889 85.6665,184.889 87.1665,185.979 87.7394,187.742"/>
<polyline fill="none" stroke="#0071bc" stroke-width="0.5" stroke-linecap="round" stroke-linejoin="round" points="120.941,198.258 120.368,200.021 118.868,201.111 117.014,201.111 115.514,200.021 114.941,198.258 115.514,196.495 117.014,195.405 118.868,195.405 120.368,196.495 120.941,198.258"/>
<polyline fill="none" stroke="#0071bc" stroke-width="0.5" stroke-linecap="round" stroke-linejoin="round" points="71.1385,208.774 70.5656,210.538 69.0656,211.627 67.2114,211.627 65.7114,210.538 65.1385,208.774 65.7114,207.011 67.2114,205.921 69.0656,205.921 70.5656,207.011 71.1385,208.774"/>
<polyline fill="none" stroke="#0071bc" stroke-width="0.5" stroke-linecap="round" stroke-linejoin="round" points="123.016,219.29 122.443,221.054 120.943,222.143 119.089,222.143 117.589,221.054 117.016,219.29 117.589,217.527 119.089,216.437 120.943,216.437 122.443,217.527 123.016,219.29"/>
<polyline fill="none" stroke="#0071bc" stroke-width="0.5" stroke-linecap="round" stroke-linejoin="round" points="108.491,229.806 107.918,231.57 106.418,232.66 104.564,232.66 103.064,231.57 102.491,229.806 103.064,228.043 104.564,226.953 106.418,226.953 107.918,228.043 108.491,229.806"/>
<polyline fill="none" stroke="#0071bc" stroke-width="0.5" stroke-linecap="round" stroke-linejoin="round" points="73.2136,240.323 72.6407,242.086 71.1407,243.176 69.2866,243.176 67.7866,242.086 67.2136,240.323 67.7866,238.559 69.2866,237.469 71.1407,237.469 72.6407,238.559 73.2136,240.323"/>
<polyline fill="none" stroke="#0071bc" stroke-width="0.5" stroke-linecap="round" stroke-linejoin="round" points="116.791,250.839 116.218,252.602 114.718,253.692 112.864,253.692 111.364,252.602 110.791,250.839 111.364,249.075 112.864,247.986 114.718,247.986 116.218,249.075 116.791,250.839"/>
<polyline fill="none" stroke="#0071bc" stroke-width="0.5" stroke-linecap="round" stroke-linejoin="round" points="96.0399,261.355 95.467,263.118 93.967,264.208 92.1129,264.208 90.6129,263.118 90.0399,261.355 90.6129,259.591 92.1129,258.502 93.967,258.502 95.467,259.591 96.0399,261.355"/>
<polyline fill="none" stroke="#0071bc" stroke-width="0.5" stroke-linecap="round" stroke-linejoin="round" points="129.242,271.871 128.669,273.634 127.169,274.724 125.315,274.724 123.815,273.634 123.242,271.871 123.815,270.108 125.315,269.018 127.169,269.018 128.669,270.108 129.242,271.871"/>
<polyline fill="none" stroke="#0071bc" stroke-width="0.5" stroke-linecap="round" stroke-linejoin="round" points="89.8146,282.387 89.2416,284.15 87.7416,285.24 85.8875,285.24 84.3875,284.15 83.8146,282.387 84.3875,280.624 85.8875,279.534 87.7416,279.534 89.2416,280.624 89.8146,282.387"/>
<polyline fill="none" stroke="#0071bc" stroke-width="0.5" stroke-linecap="round" stroke-linejoin="round" points="77.3639,292.903 76.7909,294.667 75.2909,295.756 73.4368,295.756 71.9368,294.667 71.3639,292.903 71.9368,291.14 73.4368,290.05 75.2909,290.05 76.7909,291.14 77.3639,292.903"/>
<polyline fill="none" stroke="#0071bc" stroke-width="0.5" stroke-linecap="round" stroke-linejoin="round" points="91.8897,303.419 91.3167,305.183 89.8167,306.272 87.9626,306.272 86.4626,305.183 85.8897,303.419 86.4626,301.656 87.9626,300.566 89.8167,300.566 91.3167,301.656 91.8897,303.419"/>
<polyline fill="none" stroke="#0071bc" stroke-width="0.5" stroke-linecap="round" stroke-linejoin="round" points="77.3639,313.935 76.7909,315.699 75.2909,316.789 73.4368,316.789 71.9368,315.699 71.3639,313.935 71.9368,312.172 73.4368,311.082 75.2909,311.082 76.7909,312.172 77.3639,313.935"/>
<polyline fill="none" stroke="#0071bc" stroke-width="0.5" stroke-linecap="round" stroke-linejoin="round" points="145.843,324.452 145.27,326.215 143.77,327.305 141.916,327.305 140.416,326.215 139.843,324.452 140.416,322.688 141.916,321.598 143.77,321.598 145.27,322.688 145.843,324.452"/>
<polyline fill="none" stroke="#0071bc" stroke-width="0.5" stroke-linecap="round" stroke-linejoin="round" points="139.617,334.968 139.044,336.731 137.544,337.821 135.69,337.821 134.19,336.731 133.617,334.968 134.19,333.204 135.69,332.115 137.544,332.115 139.044,333.204 139.617,334.968"/>
<polyline fill="none" stroke="#0071bc" stroke-width="0.5" stroke-linecap="round" stroke-linejoin="round" points="160.369,345.484 159.796,347.247 158.296,348.337 156.441,348.337 154.941,347.247 154.369,345.484 154.941,343.72 156.441,342.631 158.296,342.631 159.796,343.72 160.369,345.484"/>
<polyline fill="none" stroke="#0071bc" stroke-width="0.5" stroke-linecap="round" stroke-linejoin="round" points="116.791,356 116.218,357.763 114.718,358.853 112.864,358.853 111.364,357.763 110.791,356 111.364,354.237 112.864,353.147 114.718,353.147 116.218,354.237 116.791,356"/>
<polyline fill="none" stroke="#d85218" stroke-width="0.5" stroke-linecap="butt" stroke-linejoin="round" stroke-dasharray="4,4,4,4" points="95.115,30 76.439,40.5161 74.3639,51.0323 176.045,61.5484 140.768,72.0645 142.843,82.5806 124.167,93.0968 70.2136,103.613 122.092,114.129 223.772,124.645 115.866,135.161 66.0634,145.677 74.3639,156.194 68.1385,166.71 93.0399,177.226 107.566,187.742 117.941,198.258 66.0634,208.774 146.993,219.29 93.0399,229.806 68.1385,240.323 161.519,250.839 86.8146,261.355 107.566,271.871 124.167,282.387 76.439,292.903 107.566,303.419 84.7394,313.935 209.246,324.452 205.096,334.968 223.772,345.484 180.195,356"/>
<polyline fill="none" stroke="#d85218" stroke-width="0.5" stroke-linecap="square" stroke-linejoin="miter" points="92.115,27 98.115,33"/>
<polyline fill="none" stroke="#d85218" stroke-width="0.5" stroke-linecap="square" stroke-linejoin="miter" points="92.115,33 98.115,27"/>
<polyline fill="none" stroke="#d85218" stroke-width="0.5" stroke-linecap="square" stroke-linejoin="miter" points="73.439,37.5161 79.439,43.5161"/>
<polyline fill="none" stroke="#d85218" stroke-width="0.5" stroke-linecap="square" stroke-linejoin="miter" points="73.439,43.5161 79.439,37.5161"/>
<polyline fill="none" stroke="#d85218" stroke-width="0.5" stroke-linecap="square" stroke-linejoin="miter" points="71.3639,48.0323 77.3639,54.0323"/>
<polyline fill="none" stroke="#d85218" stroke-width="0.5" stroke-linecap="square" stroke-linejoin="miter" points="71.3639,54.0323 77.3639,48.0323"/>
<polyline fill="none" stroke="#d85218" stroke-width="0.5" stroke-linecap="square" stroke-linejoin="miter" points="173.045,58.5484 179.045,64.5484"/>
<polyline fill="none" stroke="#d85218" stroke-width="0.5" stroke-linecap="square" stroke-linejoin="miter" points="173.045,64.5484 179.045,58.5484"/>
<polyline fill="none" stroke="#d85218" stroke-width="0.5" stroke-linecap="square" stroke-linejoin="miter" points="137.768,69.0645 143.768,75.0645"/>
<polyline fill="none" stroke="#d85218" stroke-width="0.5" stroke-linecap="square" stroke-linejoin="miter" points="137.768,75.0645 143.768,69.0645"/>
<polyline fill="none" stroke="#d85218" stroke-width="0.5" stroke-linecap="square" stroke-linejoin="miter" points="139.843,79.5806 145.843,85.5806"/>
<polyline fill="none" stroke="#d85218" stroke-width="0.5" stroke-linecap="square" stroke-linejoin="miter" points="139.843,85.5806 145.843,79.5806"/>
<polyline fill="none" stroke="#d85218" stroke-width="0.5" stroke-linecap="square" stroke-linejoin="miter" points="121.167,90.0968 127.167,96.0968"/>
<polyline fill="none" stroke="#d85218" stroke-width="0.5" stroke-linecap="square" stroke-linejoin="miter" points="121.167,96.0968 127.167,90.0968"/>
<polyline fill="none" stroke="#d85218" stroke-width="0.5" stroke-linecap="square" stroke-linejoin="miter" points="67.2136,100.613 73.2136,106.613"/>
<polyline fill="none" stroke="#d85218" stroke-width="0.5" stroke-linecap="square" stroke-linejoin="miter" points="67.2136,106.613 73.2136,100.613"/>
<polyline fill="none" stroke="#d85218" stroke-width="0.5" stroke-linecap="square" stroke-linejoin="miter" points="119.092,111.129 125.092,117.129"/>
<polyline fill="none" stroke="#d85218" stroke-width="0.5" stroke-linecap="square" stroke-linejoin="miter" points="119.092,117.129 125.092,111.129"/>
<polyline fill="none" stroke="#d85218" stroke-width="0.5" stroke-linecap="square" stroke-linejoin="miter" points="220.772,121.645 226.772,127.645"/>
<polyline fill="none" stroke="#d85218" stroke-width="0.5" stroke-linecap="square" stroke-linejoin="miter" points="220.772,127.645 226.772,121.645"/>
<polyline fill="none" stroke="#d85218" stroke-width="0.5" stroke-linecap="square" stroke-linejoin="miter" points="112.866,132.161 118.866,138.161"/>
<polyline fill="none" stroke="#d85218" stroke-width="0.5" stroke-linecap="square" stroke-linejoin="miter" points="112.866,138.161 118.866,132.161"/>
<polyline fill="none" stroke="#d85218" stroke-width="0.5" stroke-linecap="square" stroke-linejoin="miter" points="63.0634,142.677 69.0634,148.677"/>
<polyline fill="none" stroke="#d85218" stroke-width="0.5" stroke-linecap="square" stroke-linejoin="miter" points="63.0634,148.677 69.0634,142.677"/>
<polyline fill="none" stroke="#d85218" stroke-width="0.5" stroke-linecap="square" stroke-linejoin="miter" points="71.3639,153.194 77.3639,159.194"/>
<polyline fill="none" stroke="#d85218" stroke-width="0.5" stroke-linecap="square" stroke-linejoin="miter" points="71.3639,159.194 77.3639,153.194"/>
<polyline fill="none" stroke="#d85218" stroke-width="0.5" stroke-linecap="square" stroke-linejoin="miter" points="65.1385,163.71 71.1385,169.71"/>
<polyline fill="none" stroke="#d85218" stroke-width="0.5" stroke-linecap="square" stroke-linejoin="miter" points="65.1385,169.71 71.1385,163.71"/>
<polyline fill="none" stroke="#d85218" stroke-width="0.5" stroke-linecap="square" stroke-linejoin="miter" points="90.0399,174.226 96.0399,180.226"/>
<polyline fill="none" stroke="#d85218" stroke-width="0.5" stroke-linecap="square" stroke-linejoin="miter" points="90.0399,180.226 96.0399,174.226"/>
<polyline fill="none" stroke="#d85218" stroke-width="0.5" stroke-linecap="square" stroke-linejoin="miter" points="104.566,184.742 110.566,190.742"/>
<polyline fill="none" stroke="#d85218" stroke-width="0.5" stroke-linecap="square" stroke-linejoin="miter" points="104.566,190.742 110.566,184.742"/>
<polyline fill="none" stroke="#d85218" stroke-width="0.5" stroke-linecap="square" stroke-linejoin="miter" points="114.941,195.258 120.941,201.258"/>
<polyline fill="none" stroke="#d85218" stroke-width="0.5" stroke-linecap="square" stroke-linejoin="miter" points="114.941,201.258 120.941,195.258"/>
<polyline fill="none" stroke="#d85218" stroke-width="0.5" stroke-linecap="square" stroke-linejoin="miter" points="63.0634,205.774 69.0634,211.774"/>
<polyline fill="none" stroke="#d85218" stroke-width="0.5" stroke-linecap="square" stroke-linejoin="miter" points="63.0634,211.774 69.0634,205.774"/>
<polyline fill="none" stroke="#d85218" stroke-width="0.5" stroke-linecap="square" stroke-linejoin="miter" points="143.993,216.29 149.993,222.29"/>
<polyline fill="none" stroke="#d85218" stroke-width="0.5" stroke-linecap="square" stroke-linejoin="miter" points="143.993,222.29 149.993,216.29"/>
<polyline fill="none" stroke="#d85218" stroke-width="0.5" stroke-linecap="square" stroke-linejoin="miter" points="90.0399,226.806 96.0399,232.806"/>
<polyline fill="none" stroke="#d85218" stroke-width="0.5" stroke-linecap="square" stroke-linejoin="miter" points="90.0399,232.806 96.0399,226.806"/>
<polyline fill="none" stroke="#d85218" stroke-width="0.5" stroke-linecap="square" stroke-linejoin="miter" points="65.1385,237.323 71.1385,243.323"/>
<polyline fill="none" stroke="#d85218" stroke-width="0.5" stroke-linecap="square" stroke-linejoin="miter" points="65.1385,243.323 71.1385,237.323"/>
<polyline fill="none" stroke="#d85218" stroke-width="0.5" stroke-linecap="square" stroke-linejoin="miter" points="158.519,247.839 164.519,253.839"/>
<polyline fill="none" stroke="#d85218" stroke-width="0.5" stroke-linecap="square" stroke-linejoin="miter" points="158.519,253.839 164.519,247.839"/>
<polyline fill="none" stroke="#d85218" stroke-width="0.5" stroke-linecap="square" stroke-linejoin="miter" points="83.8146,258.355 89.8146,264.355"/>
<polyline fill="none" stroke="#d85218" stroke-width="0.5" stroke-linecap="square" stroke-linejoin="miter" points="83.8146,264.355 89.8146,258.355"/>
<polyline fill="none" stroke="#d85218" stroke-width="0.5" stroke-linecap="square" stroke-linejoin="miter" points="104.566,268.871 110.566,274.871"/>
<polyline fill="none" stroke="#d85218" stroke-width="0.5" stroke-linecap="square" stroke-linejoin="miter" points="104.566,274.871 110.566,268.871"/>
<polyline fill="none" stroke="#d85218" stroke-width="0.5" stroke-linecap="square" stroke-linejoin="miter" points="121.167,279.387 127.167,285.387"/>
<polyline fill="none" stroke="#d85218" stroke-width="0.5" stroke-linecap="square" stroke-linejoin="miter" points="121.167,285.387 127.167,279.387"/>
<polyline fill="none" stroke="#d85218" stroke-width="0.5" stroke-linecap="square" stroke-linejoin="miter" points="73.439,289.903 79.439,295.903"/>
<polyline fill="none" stroke="#d85218" stroke-width="0.5" stroke-linecap="square" stroke-linejoin="miter" points="73.439,295.903 79.439,289.903"/>
<polyline fill="none" stroke="#d85218" stroke-width="0.5" stroke-linecap="square" stroke-linejoin="miter" points="104.566,300.419 110.566,306.419"/>
<polyline fill="none" stroke="#d85218" stroke-width="0.5" stroke-linecap="square" stroke-linejoin="miter" points="104.566,306.419 110.566,300.419"/>
<polyline fill="none" stroke="#d85218" stroke-width="0.5" stroke-linecap="square" stroke-linejoin="miter" points="81.7394,310.935 87.7394,316.935"/>
<polyline fill="none" stroke="#d85218" stroke-width="0.5" stroke-linecap="square" stroke-linejoin="miter" points="81.7394,316.935 87.7394,310.935"/>
<polyline fill="none" stroke="#d85218" stroke-width="0.5" stroke-linecap="square" stroke-linejoin="miter" points="206.246,321.452 212.246,327.452"/>
<polyline fill="none" stroke="#d85218" stroke-width="0.5" stroke-linecap="square" stroke-linejoin="miter" points="206.246,327.452 212.246,321.452"/>
<polyline fill="none" stroke="#d85218" stroke-width="0.5" stroke-linecap="square" stroke-linejoin="miter" points="202.096,331.968 208.096,337.968"/>
<polyline fill="none" stroke="#d85218" stroke-width="0.5" stroke-linecap="square" stroke-linejoin="miter" points="202.096,337.968 208.096,331.968"/>
<polyline fill="none" stroke="#d85218" stroke-width="0.5" stroke-linecap="square" stroke-linejoin="miter" points="220.772,342.484 226.772,348.484"/>
<polyline fill="none" stroke="#d85218" stroke-width="0.5" stroke-linecap="square" stroke-linejoin="miter" points="220.772,348.484 226.772,342.484"/>
<polyline fill="none" stroke="#d85218" stroke-width="0.5" stroke-linecap="square" stroke-linejoin="miter" points="177.195,353 183.195,359"/>
<polyline fill="none" stroke="#d85218" stroke-width="0.5" stroke-linecap="square" stroke-linejoin="miter" points="177.195,359 183.195,353"/>
</g>
<clipPath id="cp00300400">
  <polygon points="0,400 300,400 300,0 0,0"/>
</clipPath>
<g clip-path="url(#cp00300400)">
<polygon fill="#ffffff" shape-rendering="crispEdges" points="211.793,60.0105 268.83,60.0105 211.793,32.6702"/>
<polygon fill="#ffffff" shape-rendering="crispEdges" points="268.83,60.0105 268.83,32.6702 211.793,32.6702"/>
<text xml:space="preserve" transform="translate(237.16,45.0053) rotate(-0,-0,-5.5)" font-family="FreeSans" font-weight="normal" font-style="normal" font-size="9"><tspan y="-1" fill="rgb(0,0,0)" x="0 4 8 10 14 16 21 26 ">sv x qdr</tspan></text>
<text xml:space="preserve" transform="translate(237.16,58.6754) rotate(-0,-0,-5.5)" font-family="FreeSans" font-weight="normal" font-style="normal" font-size="9"><tspan y="-1" fill="rgb(0,0,0)" x="0 4 8 10 14 16 21 24 ">sv x gtx</tspan></text>
<polyline fill="none" stroke="#0071bc" stroke-width="0.5" stroke-linecap="butt" stroke-linejoin="round" points="214.463,39.5052 234.489,39.5052"/>
<polyline fill="none" stroke="#0071bc" stroke-width="0.5" stroke-linecap="round" stroke-linejoin="round" points="227.476,39.5052 226.903,41.2686 225.403,42.3584 223.549,42.3584 222.049,41.2686 221.476,39.5052 222.049,37.7419 223.549,36.6521 225.403,36.6521 226.903,37.7419 227.476,39.5052"/>
<polyline fill="none" stroke="#d85218" stroke-width="0.5" stroke-linecap="butt" stroke-linejoin="round" stroke-dasharray="4,4,4,4" points="214.463,53.1754 234.489,53.1754"/>
<polyline fill="none" stroke="#d85218" stroke-width="0.5" stroke-linecap="square" stroke-linejoin="miter" points="221.476,50.1754 227.476,56.1754"/>
<polyline fill="none" stroke="#d85218" stroke-width="0.5" stroke-linecap="square" stroke-linejoin="miter" points="221.476,56.1754 227.476,50.1754"/>
</g>
</g>
</svg>
