<?xml version="1.0" encoding="UTF-8" standalone="no"?>
<svg xmlns="http://www.w3.org/2000/svg"
     xmlns:xlink="http://www.w3.org/1999/xlink"
     width="300pt" height="400pt" viewBox="0 0 300 400">
<title>gl2ps_renderer figure</title>
<desc>
Creator: GL2PS 1.4.0, (C) 1999-2017 C. Geuzaine
For: Octave
CreationDate: Sat Nov 17 19:12:38 2018
</desc>
<defs>
</defs>
<polygon fill="#ffffff" points="0,0 300,0 300,400 0,400"/>
<g>
<polygon fill="#ffffff" points="0,400 300,400 300,0 0,0" shape-rendering="crispEdges"/>
<clipPath id="cp00300400">
  <polygon points="0,400 300,400 300,0 0,0"/>
</clipPath>
<g clip-path="url(#cp00300400)">
<polygon fill="#ffffff" shape-rendering="crispEdges" points="51.9893,356 51.9893,30 271.5,356"/>
<polygon fill="#ffffff" shape-rendering="crispEdges" points="51.9893,30 271.5,30 271.5,356"/>
<polyline fill="none" stroke="#262626" stroke-width="0.5" stroke-linecap="butt" stroke-linejoin="miter" points="51.9893,30 55.242,30"/>
<polyline fill="none" stroke="#262626" stroke-width="0.5" stroke-linecap="butt" stroke-linejoin="miter" points="271.5,30 268.247,30"/>
<polyline fill="none" stroke="#262626" stroke-width="0.5" stroke-linecap="butt" stroke-linejoin="miter" points="51.9893,356 55.242,356"/>
<polyline fill="none" stroke="#262626" stroke-width="0.5" stroke-linecap="butt" stroke-linejoin="miter" points="271.5,356 268.247,356"/>
<text xml:space="preserve" transform="translate(13.0004,35.5) rotate(-0,34,-5.5)" font-family="FreeSans" font-weight="normal" font-style="normal" font-size="10"><tspan y="-1" fill="rgb(38,38,38)" x="0 7 12 15 20 26 31 ">Hotspot</tspan></text>
<text xml:space="preserve" transform="translate(0.000390168,361.5) rotate(-0,47,-5.5)" font-family="FreeSans" font-weight="normal" font-style="normal" font-size="10"><tspan y="-1" fill="rgb(38,38,38)" x="0 7 12 15 20 26 31 34 40 ">Hotspot3D</tspan></text>
<polyline fill="none" stroke="#262626" stroke-width="0.5" stroke-linecap="butt" stroke-linejoin="miter" points="51.9893,356 51.9893,352.74"/>
<polyline fill="none" stroke="#262626" stroke-width="0.5" stroke-linecap="butt" stroke-linejoin="miter" points="51.9893,30 51.9893,33.26"/>
<polyline fill="none" stroke="#262626" stroke-width="0.5" stroke-linecap="butt" stroke-linejoin="miter" points="95.8914,356 95.8914,352.74"/>
<polyline fill="none" stroke="#262626" stroke-width="0.5" stroke-linecap="butt" stroke-linejoin="miter" points="95.8914,30 95.8914,33.26"/>
<polyline fill="none" stroke="#262626" stroke-width="0.5" stroke-linecap="butt" stroke-linejoin="miter" points="139.794,356 139.794,352.74"/>
<polyline fill="none" stroke="#262626" stroke-width="0.5" stroke-linecap="butt" stroke-linejoin="miter" points="139.794,30 139.794,33.26"/>
<polyline fill="none" stroke="#262626" stroke-width="0.5" stroke-linecap="butt" stroke-linejoin="miter" points="183.696,356 183.696,352.74"/>
<polyline fill="none" stroke="#262626" stroke-width="0.5" stroke-linecap="butt" stroke-linejoin="miter" points="183.696,30 183.696,33.26"/>
<polyline fill="none" stroke="#262626" stroke-width="0.5" stroke-linecap="butt" stroke-linejoin="miter" points="227.598,356 227.598,352.74"/>
<polyline fill="none" stroke="#262626" stroke-width="0.5" stroke-linecap="butt" stroke-linejoin="miter" points="227.598,30 227.598,33.26"/>
<polyline fill="none" stroke="#262626" stroke-width="0.5" stroke-linecap="butt" stroke-linejoin="miter" points="271.5,356 271.5,352.74"/>
<polyline fill="none" stroke="#262626" stroke-width="0.5" stroke-linecap="butt" stroke-linejoin="miter" points="271.5,30 271.5,33.26"/>
<text xml:space="preserve" transform="translate(48.9893,372) rotate(-0,3,-11)" font-family="FreeSans" font-weight="normal" font-style="normal" font-size="10"><tspan y="-1" fill="rgb(38,38,38)" x="0 ">0</tspan></text>
<text xml:space="preserve" transform="translate(88.3914,372) rotate(-0,7.5,-11)" font-family="FreeSans" font-weight="normal" font-style="normal" font-size="10"><tspan y="-1" fill="rgb(38,38,38)" x="0 6 9 ">0.2</tspan></text>
<text xml:space="preserve" transform="translate(132.294,372) rotate(-0,7.5,-11)" font-family="FreeSans" font-weight="normal" font-style="normal" font-size="10"><tspan y="-1" fill="rgb(38,38,38)" x="0 6 9 ">0.4</tspan></text>
<text xml:space="preserve" transform="translate(176.196,372) rotate(-0,7.5,-11)" font-family="FreeSans" font-weight="normal" font-style="normal" font-size="10"><tspan y="-1" fill="rgb(38,38,38)" x="0 6 9 ">0.6</tspan></text>
<text xml:space="preserve" transform="translate(220.098,372) rotate(-0,7.5,-11)" font-family="FreeSans" font-weight="normal" font-style="normal" font-size="10"><tspan y="-1" fill="rgb(38,38,38)" x="0 6 9 ">0.8</tspan></text>
<text xml:space="preserve" transform="translate(268.5,372) rotate(-0,3,-11)" font-family="FreeSans" font-weight="normal" font-style="normal" font-size="10"><tspan y="-1" fill="rgb(38,38,38)" x="0 ">1</tspan></text>
<polyline fill="none" stroke="#262626" stroke-width="0.5" stroke-linecap="square" stroke-linejoin="miter" stroke-dasharray="16,0" points="51.9893,356 51.9893,30"/>
<polyline fill="none" stroke="#262626" stroke-width="0.5" stroke-linecap="square" stroke-linejoin="miter" stroke-dasharray="16,0" points="271.5,356 271.5,30"/>
<polyline fill="none" stroke="#262626" stroke-width="0.5" stroke-linecap="square" stroke-linejoin="miter" stroke-dasharray="16,0" points="51.9893,356 271.5,356"/>
<polyline fill="none" stroke="#262626" stroke-width="0.5" stroke-linecap="square" stroke-linejoin="miter" stroke-dasharray="16,0" points="51.9893,30 271.5,30"/>
<text xml:space="preserve" transform="translate(121.245,385) rotate(-0,40.5,-13)" font-family="FreeSans" font-weight="normal" font-style="normal" font-size="11"><tspan y="-2" fill="rgb(38,38,38)" x="0 8 14 16 22 25 27 32 38 41 47 49 54 57 63 69 75 ">Relative distance</tspan></text>
<polyline fill="none" stroke="#0071bc" stroke-width="0.5" stroke-linecap="butt" stroke-linejoin="round" points="82.7208,30 109.062,356"/>
<polyline fill="none" stroke="#0071bc" stroke-width="0.5" stroke-linecap="round" stroke-linejoin="round" points="85.7208,30 85.1478,31.7634 83.6478,32.8531 81.7937,32.8531 80.2937,31.7634 79.7208,30 80.2937,28.2366 81.7937,27.1469 83.6478,27.1469 85.1478,28.2366 85.7208,30"/>
<polyline fill="none" stroke="#0071bc" stroke-width="0.5" stroke-linecap="round" stroke-linejoin="round" points="112.062,356 111.489,357.763 109.989,358.853 108.135,358.853 106.635,357.763 106.062,356 106.635,354.237 108.135,353.147 109.989,353.147 111.489,354.237 112.062,356"/>
<polyline fill="none" stroke="#d85218" stroke-width="0.5" stroke-linecap="butt" stroke-linejoin="round" stroke-dasharray="4,4,4,4" points="82.7208,30 95.8914,356"/>
<polyline fill="none" stroke="#d85218" stroke-width="0.5" stroke-linecap="square" stroke-linejoin="miter" points="79.7208,27 85.7208,33"/>
<polyline fill="none" stroke="#d85218" stroke-width="0.5" stroke-linecap="square" stroke-linejoin="miter" points="79.7208,33 85.7208,27"/>
<polyline fill="none" stroke="#d85218" stroke-width="0.5" stroke-linecap="square" stroke-linejoin="miter" points="92.8914,353 98.8914,359"/>
<polyline fill="none" stroke="#d85218" stroke-width="0.5" stroke-linecap="square" stroke-linejoin="miter" points="92.8914,359 98.8914,353"/>
</g>
<clipPath id="cp00300400">
  <polygon points="0,400 300,400 300,0 0,0"/>
</clipPath>
<g clip-path="url(#cp00300400)">
<polygon fill="#ffffff" shape-rendering="crispEdges" points="235.764,58.5815 270.07,58.5815 235.764,32.543"/>
<polygon fill="#ffffff" shape-rendering="crispEdges" points="270.07,58.5815 270.07,32.543 235.764,32.543"/>
<text xml:space="preserve" transform="translate(249.353,44.5526) rotate(-0,-0,-5.5)" font-family="FreeSans" font-weight="normal" font-style="normal" font-size="9"><tspan y="-1" fill="rgb(0,0,0)" x="0 5 10 15 17 21 23 28 33 ">a10 x qdr</tspan></text>
<text xml:space="preserve" transform="translate(249.353,57.5718) rotate(-0,-0,-5.5)" font-family="FreeSans" font-weight="normal" font-style="normal" font-size="9"><tspan y="-1" fill="rgb(0,0,0)" x="0 5 10 15 17 21 23 28 31 ">a10 x gtx</tspan></text>
<polyline fill="none" stroke="#0071bc" stroke-width="0.5" stroke-linecap="butt" stroke-linejoin="round" points="237.195,39.0526 247.923,39.0526"/>
<polyline fill="none" stroke="#0071bc" stroke-width="0.5" stroke-linecap="round" stroke-linejoin="round" points="245.559,39.0526 244.986,40.816 243.486,41.9058 241.632,41.9058 240.132,40.816 239.559,39.0526 240.132,37.2893 241.632,36.1995 243.486,36.1995 244.986,37.2893 245.559,39.0526"/>
<polyline fill="none" stroke="#d85218" stroke-width="0.5" stroke-linecap="butt" stroke-linejoin="round" stroke-dasharray="4,4,4,4" points="237.195,52.0718 247.923,52.0718"/>
<polyline fill="none" stroke="#d85218" stroke-width="0.5" stroke-linecap="square" stroke-linejoin="miter" points="239.559,49.0718 245.559,55.0718"/>
<polyline fill="none" stroke="#d85218" stroke-width="0.5" stroke-linecap="square" stroke-linejoin="miter" points="239.559,55.0718 245.559,49.0718"/>
</g>
</g>
</svg>
